<svg xmlns="http://www.w3.org/2000/svg" version="1.1" xmlns:xlink="http://www.w3.org/1999/xlink" xmlns:svgjs="http://svgjs.com/svgjs" width="1440" height="560" preserveAspectRatio="none" viewBox="0 0 1440 560">
    <g mask="url(&quot;#SvgjsMask4382&quot;)" fill="none">
        <rect width="1440" height="560" x="0" y="0" fill="url(#SvgjsLinearGradient4383)"></rect>
        <path d="M-111.84 400.02L-111.84 400.02" stroke="rgba(241, 229, 114, 1)" stroke-width="1.5"></path>
        <path d="M-111.84 400.02L-54.74 509.75" stroke="rgba(241, 229, 114, 1)" stroke-width="1.5"></path>
        <path d="M-111.84 400.02L74.81 369.17" stroke="rgba(241, 229, 114, 1)" stroke-width="1.5"></path>
        <path d="M-111.84 400.02L64.22 504.76" stroke="rgba(241, 229, 114, 1)" stroke-width="1.5"></path>
        <path d="M-111.84 400.02L-70.26 693.88" stroke="rgba(241, 229, 114, 1)" stroke-width="1.5"></path>
        <path d="M-111.84 400.02L198.53 383.9" stroke="rgba(241, 229, 114, 1)" stroke-width="1.5"></path>
        <path d="M-54.74 509.75L-54.74 509.75" stroke="rgba(241, 229, 114, 1)" stroke-width="1.5"></path>
        <path d="M-54.74 509.75L64.22 504.76" stroke="rgba(241, 229, 114, 1)" stroke-width="1.5"></path>
        <path d="M-54.74 509.75L-70.26 693.88" stroke="rgba(241, 229, 114, 1)" stroke-width="1.5"></path>
        <path d="M-70.26 693.88L-70.26 693.88" stroke="rgba(241, 229, 114, 1)" stroke-width="1.5"></path>
        <path d="M-70.26 693.88L40.87 704.94" stroke="rgba(241, 229, 114, 1)" stroke-width="1.5"></path>
        <path d="M-70.26 693.88L64.22 504.76" stroke="rgba(241, 229, 114, 1)" stroke-width="1.5"></path>
        <path d="M74.81 369.17L74.81 369.17" stroke="rgba(241, 229, 114, 1)" stroke-width="1.5"></path>
        <path d="M74.81 369.17L198.53 383.9" stroke="rgba(241, 229, 114, 1)" stroke-width="1.5"></path>
        <path d="M74.81 369.17L64.22 504.76" stroke="rgba(241, 229, 114, 1)" stroke-width="1.5"></path>
        <path d="M74.81 369.17L-54.74 509.75" stroke="rgba(241, 229, 114, 1)" stroke-width="1.5"></path>
        <path d="M64.22 504.76L64.22 504.76" stroke="rgba(241, 229, 114, 1)" stroke-width="1.5"></path>
        <path d="M64.22 504.76L198.53 383.9" stroke="rgba(241, 229, 114, 1)" stroke-width="1.5"></path>
        <path d="M64.22 504.76L40.87 704.94" stroke="rgba(241, 229, 114, 1)" stroke-width="1.5"></path>
        <path d="M64.22 504.76L262.28 550.97" stroke="rgba(241, 229, 114, 1)" stroke-width="1.5"></path>
        <path d="M40.87 704.94L40.87 704.94" stroke="rgba(241, 229, 114, 1)" stroke-width="1.5"></path>
        <path d="M40.87 704.94L207.91 654.78" stroke="rgba(241, 229, 114, 1)" stroke-width="1.5"></path>
        <path d="M198.53 383.9L198.53 383.9" stroke="rgba(241, 229, 114, 1)" stroke-width="1.5"></path>
        <path d="M198.53 383.9L338.39 374.33" stroke="rgba(241, 229, 114, 1)" stroke-width="1.5"></path>
        <path d="M198.53 383.9L262.28 550.97" stroke="rgba(241, 229, 114, 1)" stroke-width="1.5"></path>
        <path d="M198.53 383.9L370.59 555.41" stroke="rgba(241, 229, 114, 1)" stroke-width="1.5"></path>
        <path d="M262.28 550.97L262.28 550.97" stroke="rgba(241, 229, 114, 1)" stroke-width="1.5"></path>
        <path d="M262.28 550.97L370.59 555.41" stroke="rgba(241, 229, 114, 1)" stroke-width="1.5"></path>
        <path d="M262.28 550.97L207.91 654.78" stroke="rgba(241, 229, 114, 1)" stroke-width="1.5"></path>
        <path d="M262.28 550.97L338.39 374.33" stroke="rgba(241, 229, 114, 1)" stroke-width="1.5"></path>
        <path d="M262.28 550.97L409.77 693.04" stroke="rgba(241, 229, 114, 1)" stroke-width="1.5"></path>
        <path d="M207.91 654.78L207.91 654.78" stroke="rgba(241, 229, 114, 1)" stroke-width="1.5"></path>
        <path d="M207.91 654.78L370.59 555.41" stroke="rgba(241, 229, 114, 1)" stroke-width="1.5"></path>
        <path d="M338.39 374.33L338.39 374.33" stroke="rgba(241, 229, 114, 1)" stroke-width="1.5"></path>
        <path d="M338.39 374.33L499.46 396.43" stroke="rgba(241, 229, 114, 1)" stroke-width="1.5"></path>
        <path d="M338.39 374.33L370.59 555.41" stroke="rgba(241, 229, 114, 1)" stroke-width="1.5"></path>
        <path d="M370.59 555.41L370.59 555.41" stroke="rgba(241, 229, 114, 1)" stroke-width="1.5"></path>
        <path d="M370.59 555.41L409.77 693.04" stroke="rgba(241, 229, 114, 1)" stroke-width="1.5"></path>
        <path d="M370.59 555.41L493.28 647.53" stroke="rgba(241, 229, 114, 1)" stroke-width="1.5"></path>
        <path d="M370.59 555.41L549.74 510.52" stroke="rgba(241, 229, 114, 1)" stroke-width="1.5"></path>
        <path d="M409.77 693.04L409.77 693.04" stroke="rgba(241, 229, 114, 1)" stroke-width="1.5"></path>
        <path d="M409.77 693.04L493.28 647.53" stroke="rgba(241, 229, 114, 1)" stroke-width="1.5"></path>
        <path d="M499.46 396.43L499.46 396.43" stroke="rgba(241, 229, 114, 1)" stroke-width="1.5"></path>
        <path d="M499.46 396.43L549.74 510.52" stroke="rgba(241, 229, 114, 1)" stroke-width="1.5"></path>
        <path d="M499.46 396.43L670.32 399.94" stroke="rgba(241, 229, 114, 1)" stroke-width="1.5"></path>
        <path d="M499.46 396.43L370.59 555.41" stroke="rgba(241, 229, 114, 1)" stroke-width="1.5"></path>
        <path d="M499.46 396.43L493.28 647.53" stroke="rgba(241, 229, 114, 1)" stroke-width="1.5"></path>
        <path d="M499.46 396.43L707.99 545.2" stroke="rgba(241, 229, 114, 1)" stroke-width="1.5"></path>
        <path d="M549.74 510.52L549.74 510.52" stroke="rgba(241, 229, 114, 1)" stroke-width="1.5"></path>
        <path d="M549.74 510.52L493.28 647.53" stroke="rgba(241, 229, 114, 1)" stroke-width="1.5"></path>
        <path d="M549.74 510.52L707.99 545.2" stroke="rgba(241, 229, 114, 1)" stroke-width="1.5"></path>
        <path d="M549.74 510.52L670.32 399.94" stroke="rgba(241, 229, 114, 1)" stroke-width="1.5"></path>
        <path d="M493.28 647.53L493.28 647.53" stroke="rgba(241, 229, 114, 1)" stroke-width="1.5"></path>
        <path d="M670.32 399.94L670.32 399.94" stroke="rgba(241, 229, 114, 1)" stroke-width="1.5"></path>
        <path d="M670.32 399.94L790.33 377.69" stroke="rgba(241, 229, 114, 1)" stroke-width="1.5"></path>
        <path d="M670.32 399.94L707.99 545.2" stroke="rgba(241, 229, 114, 1)" stroke-width="1.5"></path>
        <path d="M707.99 545.2L707.99 545.2" stroke="rgba(241, 229, 114, 1)" stroke-width="1.5"></path>
        <path d="M707.99 545.2L657.95 657.23" stroke="rgba(241, 229, 114, 1)" stroke-width="1.5"></path>
        <path d="M657.95 657.23L657.95 657.23" stroke="rgba(241, 229, 114, 1)" stroke-width="1.5"></path>
        <path d="M657.95 657.23L493.28 647.53" stroke="rgba(241, 229, 114, 1)" stroke-width="1.5"></path>
        <path d="M657.95 657.23L549.74 510.52" stroke="rgba(241, 229, 114, 1)" stroke-width="1.5"></path>
        <path d="M657.95 657.23L828.12 499.88" stroke="rgba(241, 229, 114, 1)" stroke-width="1.5"></path>
        <path d="M787.72 214.39L787.72 214.39" stroke="rgba(241, 229, 114, 1)" stroke-width="1.5"></path>
        <path d="M787.72 214.39L790.33 377.69" stroke="rgba(241, 229, 114, 1)" stroke-width="1.5"></path>
        <path d="M787.72 214.39L670.32 399.94" stroke="rgba(241, 229, 114, 1)" stroke-width="1.5"></path>
        <path d="M787.72 214.39L944.61 49.58" stroke="rgba(241, 229, 114, 1)" stroke-width="1.5"></path>
        <path d="M787.72 214.39L996.58 372.66" stroke="rgba(241, 229, 114, 1)" stroke-width="1.5"></path>
        <path d="M790.33 377.69L790.33 377.69" stroke="rgba(241, 229, 114, 1)" stroke-width="1.5"></path>
        <path d="M790.33 377.69L828.12 499.88" stroke="rgba(241, 229, 114, 1)" stroke-width="1.5"></path>
        <path d="M828.12 499.88L828.12 499.88" stroke="rgba(241, 229, 114, 1)" stroke-width="1.5"></path>
        <path d="M828.12 499.88L707.99 545.2" stroke="rgba(241, 229, 114, 1)" stroke-width="1.5"></path>
        <path d="M828.12 499.88L993.54 517.65" stroke="rgba(241, 229, 114, 1)" stroke-width="1.5"></path>
        <path d="M828.12 499.88L670.32 399.94" stroke="rgba(241, 229, 114, 1)" stroke-width="1.5"></path>
        <path d="M944.61 49.58L944.61 49.58" stroke="rgba(241, 229, 114, 1)" stroke-width="1.5"></path>
        <path d="M944.61 49.58L1089.58 53.86" stroke="rgba(241, 229, 114, 1)" stroke-width="1.5"></path>
        <path d="M944.61 49.58L1136.7 -93.65" stroke="rgba(241, 229, 114, 1)" stroke-width="1.5"></path>
        <path d="M944.61 49.58L1098.08 247.91" stroke="rgba(241, 229, 114, 1)" stroke-width="1.5"></path>
        <path d="M944.61 49.58L996.58 372.66" stroke="rgba(241, 229, 114, 1)" stroke-width="1.5"></path>
        <path d="M996.58 372.66L996.58 372.66" stroke="rgba(241, 229, 114, 1)" stroke-width="1.5"></path>
        <path d="M996.58 372.66L1134.66 389.45" stroke="rgba(241, 229, 114, 1)" stroke-width="1.5"></path>
        <path d="M996.58 372.66L993.54 517.65" stroke="rgba(241, 229, 114, 1)" stroke-width="1.5"></path>
        <path d="M996.58 372.66L1098.08 247.91" stroke="rgba(241, 229, 114, 1)" stroke-width="1.5"></path>
        <path d="M996.58 372.66L1120.4 517.36" stroke="rgba(241, 229, 114, 1)" stroke-width="1.5"></path>
        <path d="M996.58 372.66L790.33 377.69" stroke="rgba(241, 229, 114, 1)" stroke-width="1.5"></path>
        <path d="M996.58 372.66L828.12 499.88" stroke="rgba(241, 229, 114, 1)" stroke-width="1.5"></path>
        <path d="M993.54 517.65L993.54 517.65" stroke="rgba(241, 229, 114, 1)" stroke-width="1.5"></path>
        <path d="M993.54 517.65L1120.4 517.36" stroke="rgba(241, 229, 114, 1)" stroke-width="1.5"></path>
        <path d="M993.54 517.65L1011.48 701.89" stroke="rgba(241, 229, 114, 1)" stroke-width="1.5"></path>
        <path d="M993.54 517.65L1134.66 389.45" stroke="rgba(241, 229, 114, 1)" stroke-width="1.5"></path>
        <path d="M1011.48 701.89L1011.48 701.89" stroke="rgba(241, 229, 114, 1)" stroke-width="1.5"></path>
        <path d="M1011.48 701.89L1109.49 669.14" stroke="rgba(241, 229, 114, 1)" stroke-width="1.5"></path>
        <path d="M1011.48 701.89L1120.4 517.36" stroke="rgba(241, 229, 114, 1)" stroke-width="1.5"></path>
        <path d="M1011.48 701.89L828.12 499.88" stroke="rgba(241, 229, 114, 1)" stroke-width="1.5"></path>
        <path d="M1011.48 701.89L1285.81 641.02" stroke="rgba(241, 229, 114, 1)" stroke-width="1.5"></path>
        <path d="M1136.7 -93.65L1136.7 -93.65" stroke="rgba(241, 229, 114, 1)" stroke-width="1.5"></path>
        <path d="M1136.7 -93.65L1279.54 -108.63" stroke="rgba(241, 229, 114, 1)" stroke-width="1.5"></path>
        <path d="M1136.7 -93.65L1089.58 53.86" stroke="rgba(241, 229, 114, 1)" stroke-width="1.5"></path>
        <path d="M1136.7 -93.65L1304.77 75.09" stroke="rgba(241, 229, 114, 1)" stroke-width="1.5"></path>
        <path d="M1089.58 53.86L1089.58 53.86" stroke="rgba(241, 229, 114, 1)" stroke-width="1.5"></path>
        <path d="M1089.58 53.86L1098.08 247.91" stroke="rgba(241, 229, 114, 1)" stroke-width="1.5"></path>
        <path d="M1089.58 53.86L1304.77 75.09" stroke="rgba(241, 229, 114, 1)" stroke-width="1.5"></path>
        <path d="M1089.58 53.86L1274.4 209.24" stroke="rgba(241, 229, 114, 1)" stroke-width="1.5"></path>
        <path d="M1089.58 53.86L1279.54 -108.63" stroke="rgba(241, 229, 114, 1)" stroke-width="1.5"></path>
        <path d="M1098.08 247.91L1098.08 247.91" stroke="rgba(241, 229, 114, 1)" stroke-width="1.5"></path>
        <path d="M1098.08 247.91L1134.66 389.45" stroke="rgba(241, 229, 114, 1)" stroke-width="1.5"></path>
        <path d="M1098.08 247.91L1274.4 209.24" stroke="rgba(241, 229, 114, 1)" stroke-width="1.5"></path>
        <path d="M1134.66 389.45L1134.66 389.45" stroke="rgba(241, 229, 114, 1)" stroke-width="1.5"></path>
        <path d="M1134.66 389.45L1120.4 517.36" stroke="rgba(241, 229, 114, 1)" stroke-width="1.5"></path>
        <path d="M1120.4 517.36L1120.4 517.36" stroke="rgba(241, 229, 114, 1)" stroke-width="1.5"></path>
        <path d="M1120.4 517.36L1244.89 528.54" stroke="rgba(241, 229, 114, 1)" stroke-width="1.5"></path>
        <path d="M1120.4 517.36L1109.49 669.14" stroke="rgba(241, 229, 114, 1)" stroke-width="1.5"></path>
        <path d="M1109.49 669.14L1109.49 669.14" stroke="rgba(241, 229, 114, 1)" stroke-width="1.5"></path>
        <path d="M1109.49 669.14L1285.81 641.02" stroke="rgba(241, 229, 114, 1)" stroke-width="1.5"></path>
        <path d="M1109.49 669.14L993.54 517.65" stroke="rgba(241, 229, 114, 1)" stroke-width="1.5"></path>
        <path d="M1109.49 669.14L1244.89 528.54" stroke="rgba(241, 229, 114, 1)" stroke-width="1.5"></path>
        <path d="M1279.54 -108.63L1279.54 -108.63" stroke="rgba(241, 229, 114, 1)" stroke-width="1.5"></path>
        <path d="M1279.54 -108.63L1412.29 -109.43" stroke="rgba(241, 229, 114, 1)" stroke-width="1.5"></path>
        <path d="M1279.54 -108.63L1304.77 75.09" stroke="rgba(241, 229, 114, 1)" stroke-width="1.5"></path>
        <path d="M1304.77 75.09L1304.77 75.09" stroke="rgba(241, 229, 114, 1)" stroke-width="1.5"></path>
        <path d="M1304.77 75.09L1274.4 209.24" stroke="rgba(241, 229, 114, 1)" stroke-width="1.5"></path>
        <path d="M1304.77 75.09L1452.16 92.26" stroke="rgba(241, 229, 114, 1)" stroke-width="1.5"></path>
        <path d="M1304.77 75.09L1432.73 195.83" stroke="rgba(241, 229, 114, 1)" stroke-width="1.5"></path>
        <path d="M1304.77 75.09L1412.29 -109.43" stroke="rgba(241, 229, 114, 1)" stroke-width="1.5"></path>
        <path d="M1274.4 209.24L1274.4 209.24" stroke="rgba(241, 229, 114, 1)" stroke-width="1.5"></path>
        <path d="M1274.4 209.24L1301.16 364.53" stroke="rgba(241, 229, 114, 1)" stroke-width="1.5"></path>
        <path d="M1274.4 209.24L1432.73 195.83" stroke="rgba(241, 229, 114, 1)" stroke-width="1.5"></path>
        <path d="M1301.16 364.53L1301.16 364.53" stroke="rgba(241, 229, 114, 1)" stroke-width="1.5"></path>
        <path d="M1301.16 364.53L1407.31 410.59" stroke="rgba(241, 229, 114, 1)" stroke-width="1.5"></path>
        <path d="M1301.16 364.53L1134.66 389.45" stroke="rgba(241, 229, 114, 1)" stroke-width="1.5"></path>
        <path d="M1244.89 528.54L1244.89 528.54" stroke="rgba(241, 229, 114, 1)" stroke-width="1.5"></path>
        <path d="M1244.89 528.54L1285.81 641.02" stroke="rgba(241, 229, 114, 1)" stroke-width="1.5"></path>
        <path d="M1285.81 641.02L1285.81 641.02" stroke="rgba(241, 229, 114, 1)" stroke-width="1.5"></path>
        <path d="M1285.81 641.02L1390.88 534.7" stroke="rgba(241, 229, 114, 1)" stroke-width="1.5"></path>
        <path d="M1285.81 641.02L1443.75 678.75" stroke="rgba(241, 229, 114, 1)" stroke-width="1.5"></path>
        <path d="M1285.81 641.02L1120.4 517.36" stroke="rgba(241, 229, 114, 1)" stroke-width="1.5"></path>
        <path d="M1412.29 -109.43L1412.29 -109.43" stroke="rgba(241, 229, 114, 1)" stroke-width="1.5"></path>
        <path d="M1412.29 -109.43L1581.22 -49.25" stroke="rgba(241, 229, 114, 1)" stroke-width="1.5"></path>
        <path d="M1412.29 -109.43L1452.16 92.26" stroke="rgba(241, 229, 114, 1)" stroke-width="1.5"></path>
        <path d="M1412.29 -109.43L1575.62 43.1" stroke="rgba(241, 229, 114, 1)" stroke-width="1.5"></path>
        <path d="M1452.16 92.26L1452.16 92.26" stroke="rgba(241, 229, 114, 1)" stroke-width="1.5"></path>
        <path d="M1452.16 92.26L1432.73 195.83" stroke="rgba(241, 229, 114, 1)" stroke-width="1.5"></path>
        <path d="M1452.16 92.26L1575.62 43.1" stroke="rgba(241, 229, 114, 1)" stroke-width="1.5"></path>
        <path d="M1432.73 195.83L1432.73 195.83" stroke="rgba(241, 229, 114, 1)" stroke-width="1.5"></path>
        <path d="M1432.73 195.83L1557.83 192.37" stroke="rgba(241, 229, 114, 1)" stroke-width="1.5"></path>
        <path d="M1407.31 410.59L1407.31 410.59" stroke="rgba(241, 229, 114, 1)" stroke-width="1.5"></path>
        <path d="M1407.31 410.59L1390.88 534.7" stroke="rgba(241, 229, 114, 1)" stroke-width="1.5"></path>
        <path d="M1390.88 534.7L1390.88 534.7" stroke="rgba(241, 229, 114, 1)" stroke-width="1.5"></path>
        <path d="M1390.88 534.7L1244.89 528.54" stroke="rgba(241, 229, 114, 1)" stroke-width="1.5"></path>
        <path d="M1443.75 678.75L1443.75 678.75" stroke="rgba(241, 229, 114, 1)" stroke-width="1.5"></path>
        <path d="M1443.75 678.75L1548.4 682.6" stroke="rgba(241, 229, 114, 1)" stroke-width="1.5"></path>
        <path d="M1443.75 678.75L1390.88 534.7" stroke="rgba(241, 229, 114, 1)" stroke-width="1.5"></path>
        <path d="M1443.75 678.75L1590.49 520.38" stroke="rgba(241, 229, 114, 1)" stroke-width="1.5"></path>
        <path d="M1443.75 678.75L1244.89 528.54" stroke="rgba(241, 229, 114, 1)" stroke-width="1.5"></path>
        <path d="M1581.22 -49.25L1581.22 -49.25" stroke="rgba(241, 229, 114, 1)" stroke-width="1.5"></path>
        <path d="M1581.22 -49.25L1575.62 43.1" stroke="rgba(241, 229, 114, 1)" stroke-width="1.5"></path>
        <path d="M1581.22 -49.25L1452.16 92.26" stroke="rgba(241, 229, 114, 1)" stroke-width="1.5"></path>
        <path d="M1575.62 43.1L1575.62 43.1" stroke="rgba(241, 229, 114, 1)" stroke-width="1.5"></path>
        <path d="M1575.62 43.1L1557.83 192.37" stroke="rgba(241, 229, 114, 1)" stroke-width="1.5"></path>
        <path d="M1557.83 192.37L1557.83 192.37" stroke="rgba(241, 229, 114, 1)" stroke-width="1.5"></path>
        <path d="M1557.83 192.37L1452.16 92.26" stroke="rgba(241, 229, 114, 1)" stroke-width="1.5"></path>
        <path d="M1557.83 192.37L1545.42 399.92" stroke="rgba(241, 229, 114, 1)" stroke-width="1.5"></path>
        <path d="M1557.83 192.37L1581.22 -49.25" stroke="rgba(241, 229, 114, 1)" stroke-width="1.5"></path>
        <path d="M1557.83 192.37L1407.31 410.59" stroke="rgba(241, 229, 114, 1)" stroke-width="1.5"></path>
        <path d="M1545.42 399.92L1545.42 399.92" stroke="rgba(241, 229, 114, 1)" stroke-width="1.5"></path>
        <path d="M1545.42 399.92L1590.49 520.38" stroke="rgba(241, 229, 114, 1)" stroke-width="1.5"></path>
        <path d="M1545.42 399.92L1407.31 410.59" stroke="rgba(241, 229, 114, 1)" stroke-width="1.5"></path>
        <path d="M1590.49 520.38L1590.49 520.38" stroke="rgba(241, 229, 114, 1)" stroke-width="1.5"></path>
        <path d="M1590.49 520.38L1548.4 682.6" stroke="rgba(241, 229, 114, 1)" stroke-width="1.5"></path>
        <path d="M1548.4 682.6L1548.4 682.6" stroke="rgba(241, 229, 114, 1)" stroke-width="1.5"></path>
        <path d="M1548.4 682.6L1390.88 534.7" stroke="rgba(241, 229, 114, 1)" stroke-width="1.5"></path>
        <path d="M1548.4 682.6L1285.81 641.02" stroke="rgba(241, 229, 114, 1)" stroke-width="1.5"></path>
        <circle r="5" cx="-111.84" cy="400.02" fill="rgba(241, 229, 114, 1)"></circle>
        <circle r="5" cx="-54.74" cy="509.75" fill="rgba(241, 229, 114, 1)"></circle>
        <circle r="5" cx="-70.26" cy="693.88" fill="rgba(241, 229, 114, 1)"></circle>
        <circle r="5" cx="74.81" cy="369.17" fill="rgba(241, 229, 114, 1)"></circle>
        <circle r="5" cx="64.22" cy="504.76" fill="rgba(241, 229, 114, 1)"></circle>
        <circle r="5" cx="40.87" cy="704.94" fill="rgba(241, 229, 114, 1)"></circle>
        <circle r="5" cx="198.53" cy="383.9" fill="rgba(241, 229, 114, 1)"></circle>
        <circle r="5" cx="262.28" cy="550.97" fill="rgba(241, 229, 114, 1)"></circle>
        <circle r="5" cx="207.91" cy="654.78" fill="rgba(241, 229, 114, 1)"></circle>
        <circle r="5" cx="338.39" cy="374.33" fill="rgba(241, 229, 114, 1)"></circle>
        <circle r="5" cx="370.59" cy="555.41" fill="rgba(241, 229, 114, 1)"></circle>
        <circle r="5" cx="409.77" cy="693.04" fill="rgba(241, 229, 114, 1)"></circle>
        <circle r="5" cx="499.46" cy="396.43" fill="rgba(241, 229, 114, 1)"></circle>
        <circle r="5" cx="549.74" cy="510.52" fill="rgba(241, 229, 114, 1)"></circle>
        <circle r="5" cx="493.28" cy="647.53" fill="rgba(241, 229, 114, 1)"></circle>
        <circle r="5" cx="670.32" cy="399.94" fill="rgba(241, 229, 114, 1)"></circle>
        <circle r="5" cx="707.99" cy="545.2" fill="rgba(241, 229, 114, 1)"></circle>
        <circle r="5" cx="657.95" cy="657.23" fill="rgba(241, 229, 114, 1)"></circle>
        <circle r="5" cx="787.72" cy="214.39" fill="rgba(241, 229, 114, 1)"></circle>
        <circle r="5" cx="790.33" cy="377.69" fill="rgba(241, 229, 114, 1)"></circle>
        <circle r="5" cx="828.12" cy="499.88" fill="rgba(241, 229, 114, 1)"></circle>
        <circle r="5" cx="944.61" cy="49.58" fill="rgba(241, 229, 114, 1)"></circle>
        <circle r="5" cx="996.58" cy="372.66" fill="rgba(241, 229, 114, 1)"></circle>
        <circle r="5" cx="993.54" cy="517.65" fill="rgba(241, 229, 114, 1)"></circle>
        <circle r="5" cx="1011.48" cy="701.89" fill="rgba(241, 229, 114, 1)"></circle>
        <circle r="5" cx="1136.7" cy="-93.65" fill="rgba(241, 229, 114, 1)"></circle>
        <circle r="5" cx="1089.58" cy="53.86" fill="rgba(241, 229, 114, 1)"></circle>
        <circle r="5" cx="1098.08" cy="247.91" fill="rgba(241, 229, 114, 1)"></circle>
        <circle r="5" cx="1134.66" cy="389.45" fill="rgba(241, 229, 114, 1)"></circle>
        <circle r="5" cx="1120.4" cy="517.36" fill="rgba(241, 229, 114, 1)"></circle>
        <circle r="5" cx="1109.49" cy="669.14" fill="rgba(241, 229, 114, 1)"></circle>
        <circle r="5" cx="1279.54" cy="-108.63" fill="rgba(241, 229, 114, 1)"></circle>
        <circle r="5" cx="1304.77" cy="75.09" fill="rgba(241, 229, 114, 1)"></circle>
        <circle r="5" cx="1274.4" cy="209.24" fill="rgba(241, 229, 114, 1)"></circle>
        <circle r="5" cx="1301.16" cy="364.53" fill="rgba(241, 229, 114, 1)"></circle>
        <circle r="5" cx="1244.89" cy="528.54" fill="rgba(241, 229, 114, 1)"></circle>
        <circle r="5" cx="1285.81" cy="641.02" fill="rgba(241, 229, 114, 1)"></circle>
        <circle r="5" cx="1412.29" cy="-109.43" fill="rgba(241, 229, 114, 1)"></circle>
        <circle r="5" cx="1452.16" cy="92.26" fill="rgba(241, 229, 114, 1)"></circle>
        <circle r="5" cx="1432.73" cy="195.83" fill="rgba(241, 229, 114, 1)"></circle>
        <circle r="5" cx="1407.31" cy="410.59" fill="rgba(241, 229, 114, 1)"></circle>
        <circle r="5" cx="1390.88" cy="534.7" fill="rgba(241, 229, 114, 1)"></circle>
        <circle r="5" cx="1443.75" cy="678.75" fill="rgba(241, 229, 114, 1)"></circle>
        <circle r="5" cx="1581.22" cy="-49.25" fill="rgba(241, 229, 114, 1)"></circle>
        <circle r="5" cx="1575.62" cy="43.1" fill="rgba(241, 229, 114, 1)"></circle>
        <circle r="5" cx="1557.83" cy="192.37" fill="rgba(241, 229, 114, 1)"></circle>
        <circle r="5" cx="1545.42" cy="399.92" fill="rgba(241, 229, 114, 1)"></circle>
        <circle r="5" cx="1590.49" cy="520.38" fill="rgba(241, 229, 114, 1)"></circle>
        <circle r="5" cx="1548.4" cy="682.6" fill="rgba(241, 229, 114, 1)"></circle>
        <path d="M363.18 498.4L363.18 498.4" stroke="hsl(46.69999999999999, 56.2%, 70.6%)" stroke-width="1.5"></path>
        <path d="M363.18 498.4L221.91 511.18" stroke="hsl(46.69999999999999, 56.2%, 70.6%)" stroke-width="1.5"></path>
        <path d="M363.18 498.4L364.95 644.71" stroke="hsl(46.69999999999999, 56.2%, 70.6%)" stroke-width="1.5"></path>
        <path d="M363.18 498.4L509.54 522.47" stroke="hsl(46.69999999999999, 56.2%, 70.6%)" stroke-width="1.5"></path>
        <path d="M363.18 498.4L495.8 404.49" stroke="hsl(46.69999999999999, 56.2%, 70.6%)" stroke-width="1.5"></path>
        <path d="M363.18 498.4L532.82 637.77" stroke="hsl(46.69999999999999, 56.2%, 70.6%)" stroke-width="1.5"></path>
        <path d="M363.18 498.4L225.13 686.44" stroke="hsl(46.69999999999999, 56.2%, 70.6%)" stroke-width="1.5"></path>
        <path d="M364.95 644.71L364.95 644.71" stroke="hsl(46.69999999999999, 56.2%, 70.6%)" stroke-width="1.5"></path>
        <path d="M364.95 644.71L225.13 686.44" stroke="hsl(46.69999999999999, 56.2%, 70.6%)" stroke-width="1.5"></path>
        <path d="M364.95 644.71L532.82 637.77" stroke="hsl(46.69999999999999, 56.2%, 70.6%)" stroke-width="1.5"></path>
        <path d="M532.82 637.77L532.82 637.77" stroke="hsl(46.69999999999999, 56.2%, 70.6%)" stroke-width="1.5"></path>
        <path d="M532.82 637.77L509.54 522.47" stroke="hsl(46.69999999999999, 56.2%, 70.6%)" stroke-width="1.5"></path>
        <path d="M532.82 637.77L664.08 684.12" stroke="hsl(46.69999999999999, 56.2%, 70.6%)" stroke-width="1.5"></path>
        <path d="M532.82 637.77L675.32 529.78" stroke="hsl(46.69999999999999, 56.2%, 70.6%)" stroke-width="1.5"></path>
        <path d="M818.95 513.05L818.95 513.05" stroke="hsl(46.69999999999999, 56.2%, 70.6%)" stroke-width="1.5"></path>
        <path d="M818.95 513.05L945.83 553.52" stroke="hsl(46.69999999999999, 56.2%, 70.6%)" stroke-width="1.5"></path>
        <path d="M818.95 513.05L801.03 651.6" stroke="hsl(46.69999999999999, 56.2%, 70.6%)" stroke-width="1.5"></path>
        <path d="M818.95 513.05L675.32 529.78" stroke="hsl(46.69999999999999, 56.2%, 70.6%)" stroke-width="1.5"></path>
        <path d="M818.95 513.05L819.6 361.95" stroke="hsl(46.69999999999999, 56.2%, 70.6%)" stroke-width="1.5"></path>
        <path d="M1306.57 673.02L1306.57 673.02" stroke="hsl(46.69999999999999, 56.2%, 70.6%)" stroke-width="1.5"></path>
        <path d="M1306.57 673.02L1402.88 690.21" stroke="hsl(46.69999999999999, 56.2%, 70.6%)" stroke-width="1.5"></path>
        <path d="M1306.57 673.02L1143.45 658.63" stroke="hsl(46.69999999999999, 56.2%, 70.6%)" stroke-width="1.5"></path>
        <path d="M1306.57 673.02L1257.57 487.91" stroke="hsl(46.69999999999999, 56.2%, 70.6%)" stroke-width="1.5"></path>
        <path d="M1306.57 673.02L1403.62 505.5" stroke="hsl(46.69999999999999, 56.2%, 70.6%)" stroke-width="1.5"></path>
        <path d="M1306.57 673.02L1156.98 525.55" stroke="hsl(46.69999999999999, 56.2%, 70.6%)" stroke-width="1.5"></path>
        <path d="M1306.57 673.02L1569.5 708.48" stroke="hsl(46.69999999999999, 56.2%, 70.6%)" stroke-width="1.5"></path>
        <path d="M1604.27 224.23L1604.27 224.23" stroke="hsl(46.69999999999999, 56.2%, 70.6%)" stroke-width="1.5"></path>
        <path d="M1604.27 224.23L1593.6 337.9" stroke="hsl(46.69999999999999, 56.2%, 70.6%)" stroke-width="1.5"></path>
        <path d="M-90.46 528.95L-90.46 528.95" stroke="hsl(46.69999999999999, 56.2%, 70.6%)" stroke-width="1.5"></path>
        <path d="M-90.46 528.95L-93.66 691.13" stroke="hsl(46.69999999999999, 56.2%, 70.6%)" stroke-width="1.5"></path>
        <path d="M-90.46 528.95L73.78 536.36" stroke="hsl(46.69999999999999, 56.2%, 70.6%)" stroke-width="1.5"></path>
        <path d="M-90.46 528.95L52.46 668.86" stroke="hsl(46.69999999999999, 56.2%, 70.6%)" stroke-width="1.5"></path>
        <path d="M-90.46 528.95L221.91 511.18" stroke="hsl(46.69999999999999, 56.2%, 70.6%)" stroke-width="1.5"></path>
        <path d="M-93.66 691.13L-93.66 691.13" stroke="hsl(46.69999999999999, 56.2%, 70.6%)" stroke-width="1.5"></path>
        <path d="M-93.66 691.13L52.46 668.86" stroke="hsl(46.69999999999999, 56.2%, 70.6%)" stroke-width="1.5"></path>
        <path d="M-93.66 691.13L73.78 536.36" stroke="hsl(46.69999999999999, 56.2%, 70.6%)" stroke-width="1.5"></path>
        <path d="M-93.66 691.13L225.13 686.44" stroke="hsl(46.69999999999999, 56.2%, 70.6%)" stroke-width="1.5"></path>
        <path d="M73.78 536.36L73.78 536.36" stroke="hsl(46.69999999999999, 56.2%, 70.6%)" stroke-width="1.5"></path>
        <path d="M73.78 536.36L52.46 668.86" stroke="hsl(46.69999999999999, 56.2%, 70.6%)" stroke-width="1.5"></path>
        <path d="M73.78 536.36L221.91 511.18" stroke="hsl(46.69999999999999, 56.2%, 70.6%)" stroke-width="1.5"></path>
        <path d="M52.46 668.86L52.46 668.86" stroke="hsl(46.69999999999999, 56.2%, 70.6%)" stroke-width="1.5"></path>
        <path d="M221.91 511.18L221.91 511.18" stroke="hsl(46.69999999999999, 56.2%, 70.6%)" stroke-width="1.5"></path>
        <path d="M221.91 511.18L225.13 686.44" stroke="hsl(46.69999999999999, 56.2%, 70.6%)" stroke-width="1.5"></path>
        <path d="M225.13 686.44L225.13 686.44" stroke="hsl(46.69999999999999, 56.2%, 70.6%)" stroke-width="1.5"></path>
        <path d="M225.13 686.44L52.46 668.86" stroke="hsl(46.69999999999999, 56.2%, 70.6%)" stroke-width="1.5"></path>
        <path d="M495.8 404.49L495.8 404.49" stroke="hsl(46.69999999999999, 56.2%, 70.6%)" stroke-width="1.5"></path>
        <path d="M495.8 404.49L509.54 522.47" stroke="hsl(46.69999999999999, 56.2%, 70.6%)" stroke-width="1.5"></path>
        <path d="M495.8 404.49L661.94 371.42" stroke="hsl(46.69999999999999, 56.2%, 70.6%)" stroke-width="1.5"></path>
        <path d="M495.8 404.49L675.32 529.78" stroke="hsl(46.69999999999999, 56.2%, 70.6%)" stroke-width="1.5"></path>
        <path d="M495.8 404.49L532.82 637.77" stroke="hsl(46.69999999999999, 56.2%, 70.6%)" stroke-width="1.5"></path>
        <path d="M495.8 404.49L364.95 644.71" stroke="hsl(46.69999999999999, 56.2%, 70.6%)" stroke-width="1.5"></path>
        <path d="M509.54 522.47L509.54 522.47" stroke="hsl(46.69999999999999, 56.2%, 70.6%)" stroke-width="1.5"></path>
        <path d="M509.54 522.47L675.32 529.78" stroke="hsl(46.69999999999999, 56.2%, 70.6%)" stroke-width="1.5"></path>
        <path d="M661.94 371.42L661.94 371.42" stroke="hsl(46.69999999999999, 56.2%, 70.6%)" stroke-width="1.5"></path>
        <path d="M661.94 371.42L819.6 361.95" stroke="hsl(46.69999999999999, 56.2%, 70.6%)" stroke-width="1.5"></path>
        <path d="M661.94 371.42L675.32 529.78" stroke="hsl(46.69999999999999, 56.2%, 70.6%)" stroke-width="1.5"></path>
        <path d="M661.94 371.42L818.95 513.05" stroke="hsl(46.69999999999999, 56.2%, 70.6%)" stroke-width="1.5"></path>
        <path d="M661.94 371.42L509.54 522.47" stroke="hsl(46.69999999999999, 56.2%, 70.6%)" stroke-width="1.5"></path>
        <path d="M661.94 371.42L952.26 363.64" stroke="hsl(46.69999999999999, 56.2%, 70.6%)" stroke-width="1.5"></path>
        <path d="M675.32 529.78L675.32 529.78" stroke="hsl(46.69999999999999, 56.2%, 70.6%)" stroke-width="1.5"></path>
        <path d="M675.32 529.78L664.08 684.12" stroke="hsl(46.69999999999999, 56.2%, 70.6%)" stroke-width="1.5"></path>
        <path d="M675.32 529.78L801.03 651.6" stroke="hsl(46.69999999999999, 56.2%, 70.6%)" stroke-width="1.5"></path>
        <path d="M664.08 684.12L664.08 684.12" stroke="hsl(46.69999999999999, 56.2%, 70.6%)" stroke-width="1.5"></path>
        <path d="M664.08 684.12L801.03 651.6" stroke="hsl(46.69999999999999, 56.2%, 70.6%)" stroke-width="1.5"></path>
        <path d="M819.6 361.95L819.6 361.95" stroke="hsl(46.69999999999999, 56.2%, 70.6%)" stroke-width="1.5"></path>
        <path d="M819.6 361.95L952.26 363.64" stroke="hsl(46.69999999999999, 56.2%, 70.6%)" stroke-width="1.5"></path>
        <path d="M801.03 651.6L801.03 651.6" stroke="hsl(46.69999999999999, 56.2%, 70.6%)" stroke-width="1.5"></path>
        <path d="M801.03 651.6L945.83 553.52" stroke="hsl(46.69999999999999, 56.2%, 70.6%)" stroke-width="1.5"></path>
        <path d="M801.03 651.6L1008.98 703.27" stroke="hsl(46.69999999999999, 56.2%, 70.6%)" stroke-width="1.5"></path>
        <path d="M952.26 363.64L952.26 363.64" stroke="hsl(46.69999999999999, 56.2%, 70.6%)" stroke-width="1.5"></path>
        <path d="M952.26 363.64L1108.99 371.01" stroke="hsl(46.69999999999999, 56.2%, 70.6%)" stroke-width="1.5"></path>
        <path d="M952.26 363.64L945.83 553.52" stroke="hsl(46.69999999999999, 56.2%, 70.6%)" stroke-width="1.5"></path>
        <path d="M952.26 363.64L818.95 513.05" stroke="hsl(46.69999999999999, 56.2%, 70.6%)" stroke-width="1.5"></path>
        <path d="M952.26 363.64L1096.03 209.7" stroke="hsl(46.69999999999999, 56.2%, 70.6%)" stroke-width="1.5"></path>
        <path d="M952.26 363.64L1156.98 525.55" stroke="hsl(46.69999999999999, 56.2%, 70.6%)" stroke-width="1.5"></path>
        <path d="M945.83 553.52L945.83 553.52" stroke="hsl(46.69999999999999, 56.2%, 70.6%)" stroke-width="1.5"></path>
        <path d="M945.83 553.52L1008.98 703.27" stroke="hsl(46.69999999999999, 56.2%, 70.6%)" stroke-width="1.5"></path>
        <path d="M945.83 553.52L1156.98 525.55" stroke="hsl(46.69999999999999, 56.2%, 70.6%)" stroke-width="1.5"></path>
        <path d="M1008.98 703.27L1008.98 703.27" stroke="hsl(46.69999999999999, 56.2%, 70.6%)" stroke-width="1.5"></path>
        <path d="M1008.98 703.27L1143.45 658.63" stroke="hsl(46.69999999999999, 56.2%, 70.6%)" stroke-width="1.5"></path>
        <path d="M1008.98 703.27L1156.98 525.55" stroke="hsl(46.69999999999999, 56.2%, 70.6%)" stroke-width="1.5"></path>
        <path d="M1008.98 703.27L818.95 513.05" stroke="hsl(46.69999999999999, 56.2%, 70.6%)" stroke-width="1.5"></path>
        <path d="M1152.22 -99.75L1152.22 -99.75" stroke="hsl(46.69999999999999, 56.2%, 70.6%)" stroke-width="1.5"></path>
        <path d="M1152.22 -99.75L1266.44 -92.71" stroke="hsl(46.69999999999999, 56.2%, 70.6%)" stroke-width="1.5"></path>
        <path d="M1152.22 -99.75L1286.03 94.97" stroke="hsl(46.69999999999999, 56.2%, 70.6%)" stroke-width="1.5"></path>
        <path d="M1152.22 -99.75L1424.85 -42.15" stroke="hsl(46.69999999999999, 56.2%, 70.6%)" stroke-width="1.5"></path>
        <path d="M1096.03 209.7L1096.03 209.7" stroke="hsl(46.69999999999999, 56.2%, 70.6%)" stroke-width="1.5"></path>
        <path d="M1096.03 209.7L1108.99 371.01" stroke="hsl(46.69999999999999, 56.2%, 70.6%)" stroke-width="1.5"></path>
        <path d="M1096.03 209.7L1270.38 256.26" stroke="hsl(46.69999999999999, 56.2%, 70.6%)" stroke-width="1.5"></path>
        <path d="M1096.03 209.7L1286.03 94.97" stroke="hsl(46.69999999999999, 56.2%, 70.6%)" stroke-width="1.5"></path>
        <path d="M1108.99 371.01L1108.99 371.01" stroke="hsl(46.69999999999999, 56.2%, 70.6%)" stroke-width="1.5"></path>
        <path d="M1108.99 371.01L1264.91 370.98" stroke="hsl(46.69999999999999, 56.2%, 70.6%)" stroke-width="1.5"></path>
        <path d="M1156.98 525.55L1156.98 525.55" stroke="hsl(46.69999999999999, 56.2%, 70.6%)" stroke-width="1.5"></path>
        <path d="M1156.98 525.55L1257.57 487.91" stroke="hsl(46.69999999999999, 56.2%, 70.6%)" stroke-width="1.5"></path>
        <path d="M1156.98 525.55L1143.45 658.63" stroke="hsl(46.69999999999999, 56.2%, 70.6%)" stroke-width="1.5"></path>
        <path d="M1143.45 658.63L1143.45 658.63" stroke="hsl(46.69999999999999, 56.2%, 70.6%)" stroke-width="1.5"></path>
        <path d="M1143.45 658.63L1257.57 487.91" stroke="hsl(46.69999999999999, 56.2%, 70.6%)" stroke-width="1.5"></path>
        <path d="M1143.45 658.63L945.83 553.52" stroke="hsl(46.69999999999999, 56.2%, 70.6%)" stroke-width="1.5"></path>
        <path d="M1266.44 -92.71L1266.44 -92.71" stroke="hsl(46.69999999999999, 56.2%, 70.6%)" stroke-width="1.5"></path>
        <path d="M1286.03 94.97L1286.03 94.97" stroke="hsl(46.69999999999999, 56.2%, 70.6%)" stroke-width="1.5"></path>
        <path d="M1286.03 94.97L1413.4 60.49" stroke="hsl(46.69999999999999, 56.2%, 70.6%)" stroke-width="1.5"></path>
        <path d="M1286.03 94.97L1392.99 204.72" stroke="hsl(46.69999999999999, 56.2%, 70.6%)" stroke-width="1.5"></path>
        <path d="M1270.38 256.26L1270.38 256.26" stroke="hsl(46.69999999999999, 56.2%, 70.6%)" stroke-width="1.5"></path>
        <path d="M1270.38 256.26L1264.91 370.98" stroke="hsl(46.69999999999999, 56.2%, 70.6%)" stroke-width="1.5"></path>
        <path d="M1270.38 256.26L1392.99 204.72" stroke="hsl(46.69999999999999, 56.2%, 70.6%)" stroke-width="1.5"></path>
        <path d="M1264.91 370.98L1264.91 370.98" stroke="hsl(46.69999999999999, 56.2%, 70.6%)" stroke-width="1.5"></path>
        <path d="M1264.91 370.98L1257.57 487.91" stroke="hsl(46.69999999999999, 56.2%, 70.6%)" stroke-width="1.5"></path>
        <path d="M1264.91 370.98L1422.38 351.33" stroke="hsl(46.69999999999999, 56.2%, 70.6%)" stroke-width="1.5"></path>
        <path d="M1264.91 370.98L1156.98 525.55" stroke="hsl(46.69999999999999, 56.2%, 70.6%)" stroke-width="1.5"></path>
        <path d="M1264.91 370.98L1403.62 505.5" stroke="hsl(46.69999999999999, 56.2%, 70.6%)" stroke-width="1.5"></path>
        <path d="M1257.57 487.91L1257.57 487.91" stroke="hsl(46.69999999999999, 56.2%, 70.6%)" stroke-width="1.5"></path>
        <path d="M1424.85 -42.15L1424.85 -42.15" stroke="hsl(46.69999999999999, 56.2%, 70.6%)" stroke-width="1.5"></path>
        <path d="M1424.85 -42.15L1413.4 60.49" stroke="hsl(46.69999999999999, 56.2%, 70.6%)" stroke-width="1.5"></path>
        <path d="M1424.85 -42.15L1564.49 -72.5" stroke="hsl(46.69999999999999, 56.2%, 70.6%)" stroke-width="1.5"></path>
        <path d="M1424.85 -42.15L1266.44 -92.71" stroke="hsl(46.69999999999999, 56.2%, 70.6%)" stroke-width="1.5"></path>
        <path d="M1424.85 -42.15L1286.03 94.97" stroke="hsl(46.69999999999999, 56.2%, 70.6%)" stroke-width="1.5"></path>
        <path d="M1413.4 60.49L1413.4 60.49" stroke="hsl(46.69999999999999, 56.2%, 70.6%)" stroke-width="1.5"></path>
        <path d="M1392.99 204.72L1392.99 204.72" stroke="hsl(46.69999999999999, 56.2%, 70.6%)" stroke-width="1.5"></path>
        <path d="M1392.99 204.72L1413.4 60.49" stroke="hsl(46.69999999999999, 56.2%, 70.6%)" stroke-width="1.5"></path>
        <path d="M1392.99 204.72L1422.38 351.33" stroke="hsl(46.69999999999999, 56.2%, 70.6%)" stroke-width="1.5"></path>
        <path d="M1392.99 204.72L1264.91 370.98" stroke="hsl(46.69999999999999, 56.2%, 70.6%)" stroke-width="1.5"></path>
        <path d="M1422.38 351.33L1422.38 351.33" stroke="hsl(46.69999999999999, 56.2%, 70.6%)" stroke-width="1.5"></path>
        <path d="M1422.38 351.33L1403.62 505.5" stroke="hsl(46.69999999999999, 56.2%, 70.6%)" stroke-width="1.5"></path>
        <path d="M1403.62 505.5L1403.62 505.5" stroke="hsl(46.69999999999999, 56.2%, 70.6%)" stroke-width="1.5"></path>
        <path d="M1403.62 505.5L1257.57 487.91" stroke="hsl(46.69999999999999, 56.2%, 70.6%)" stroke-width="1.5"></path>
        <path d="M1403.62 505.5L1402.88 690.21" stroke="hsl(46.69999999999999, 56.2%, 70.6%)" stroke-width="1.5"></path>
        <path d="M1403.62 505.5L1594.47 527.5" stroke="hsl(46.69999999999999, 56.2%, 70.6%)" stroke-width="1.5"></path>
        <path d="M1402.88 690.21L1402.88 690.21" stroke="hsl(46.69999999999999, 56.2%, 70.6%)" stroke-width="1.5"></path>
        <path d="M1402.88 690.21L1569.5 708.48" stroke="hsl(46.69999999999999, 56.2%, 70.6%)" stroke-width="1.5"></path>
        <path d="M1402.88 690.21L1257.57 487.91" stroke="hsl(46.69999999999999, 56.2%, 70.6%)" stroke-width="1.5"></path>
        <path d="M1402.88 690.21L1594.47 527.5" stroke="hsl(46.69999999999999, 56.2%, 70.6%)" stroke-width="1.5"></path>
        <path d="M1564.49 -72.5L1564.49 -72.5" stroke="hsl(46.69999999999999, 56.2%, 70.6%)" stroke-width="1.5"></path>
        <path d="M1564.49 -72.5L1596.32 56.86" stroke="hsl(46.69999999999999, 56.2%, 70.6%)" stroke-width="1.5"></path>
        <path d="M1564.49 -72.5L1413.4 60.49" stroke="hsl(46.69999999999999, 56.2%, 70.6%)" stroke-width="1.5"></path>
        <path d="M1564.49 -72.5L1266.44 -92.71" stroke="hsl(46.69999999999999, 56.2%, 70.6%)" stroke-width="1.5"></path>
        <path d="M1596.32 56.86L1596.32 56.86" stroke="hsl(46.69999999999999, 56.2%, 70.6%)" stroke-width="1.5"></path>
        <path d="M1596.32 56.86L1604.27 224.23" stroke="hsl(46.69999999999999, 56.2%, 70.6%)" stroke-width="1.5"></path>
        <path d="M1593.6 337.9L1593.6 337.9" stroke="hsl(46.69999999999999, 56.2%, 70.6%)" stroke-width="1.5"></path>
        <path d="M1593.6 337.9L1422.38 351.33" stroke="hsl(46.69999999999999, 56.2%, 70.6%)" stroke-width="1.5"></path>
        <path d="M1594.47 527.5L1594.47 527.5" stroke="hsl(46.69999999999999, 56.2%, 70.6%)" stroke-width="1.5"></path>
        <path d="M1594.47 527.5L1569.5 708.48" stroke="hsl(46.69999999999999, 56.2%, 70.6%)" stroke-width="1.5"></path>
        <path d="M1594.47 527.5L1593.6 337.9" stroke="hsl(46.69999999999999, 56.2%, 70.6%)" stroke-width="1.5"></path>
        <path d="M1569.5 708.48L1569.5 708.48" stroke="hsl(46.69999999999999, 56.2%, 70.6%)" stroke-width="1.5"></path>
        <path d="M1569.5 708.48L1403.62 505.5" stroke="hsl(46.69999999999999, 56.2%, 70.6%)" stroke-width="1.5"></path>
        <path d="M1569.5 708.48L1593.6 337.9" stroke="hsl(46.69999999999999, 56.2%, 70.6%)" stroke-width="1.5"></path>
        <path d="M1569.5 708.48L1257.57 487.91" stroke="hsl(46.69999999999999, 56.2%, 70.6%)" stroke-width="1.5"></path>
        <circle r="25" cx="363.18" cy="498.4" fill="url(#SvgjsRadialGradient4384)"></circle>
        <circle r="25" cx="364.95" cy="644.71" fill="url(#SvgjsRadialGradient4384)"></circle>
        <circle r="25" cx="532.82" cy="637.77" fill="url(#SvgjsRadialGradient4384)"></circle>
        <circle r="25" cx="818.95" cy="513.05" fill="url(#SvgjsRadialGradient4384)"></circle>
        <circle r="25" cx="1306.57" cy="673.02" fill="url(#SvgjsRadialGradient4384)"></circle>
        <circle r="25" cx="1604.27" cy="224.23" fill="url(#SvgjsRadialGradient4384)"></circle>
        <circle r="5" cx="-90.46" cy="528.95" fill="#e6d7a4"></circle>
        <circle r="5" cx="-93.66" cy="691.13" fill="#e6d7a4"></circle>
        <circle r="5" cx="73.78" cy="536.36" fill="#e6d7a4"></circle>
        <circle r="5" cx="52.46" cy="668.86" fill="#e6d7a4"></circle>
        <circle r="5" cx="221.91" cy="511.18" fill="#e6d7a4"></circle>
        <circle r="5" cx="225.13" cy="686.44" fill="#e6d7a4"></circle>
        <circle r="5" cx="495.8" cy="404.49" fill="#e6d7a4"></circle>
        <circle r="5" cx="509.54" cy="522.47" fill="#e6d7a4"></circle>
        <circle r="5" cx="661.94" cy="371.42" fill="#e6d7a4"></circle>
        <circle r="5" cx="675.32" cy="529.78" fill="#e6d7a4"></circle>
        <circle r="5" cx="664.08" cy="684.12" fill="#e6d7a4"></circle>
        <circle r="5" cx="819.6" cy="361.95" fill="#e6d7a4"></circle>
        <circle r="5" cx="801.03" cy="651.6" fill="#e6d7a4"></circle>
        <circle r="5" cx="952.26" cy="363.64" fill="#e6d7a4"></circle>
        <circle r="5" cx="945.83" cy="553.52" fill="#e6d7a4"></circle>
        <circle r="5" cx="1008.98" cy="703.27" fill="#e6d7a4"></circle>
        <circle r="5" cx="1152.22" cy="-99.75" fill="#e6d7a4"></circle>
        <circle r="5" cx="1096.03" cy="209.7" fill="#e6d7a4"></circle>
        <circle r="5" cx="1108.99" cy="371.01" fill="#e6d7a4"></circle>
        <circle r="5" cx="1156.98" cy="525.55" fill="#e6d7a4"></circle>
        <circle r="5" cx="1143.45" cy="658.63" fill="#e6d7a4"></circle>
        <circle r="5" cx="1266.44" cy="-92.71" fill="#e6d7a4"></circle>
        <circle r="5" cx="1286.03" cy="94.97" fill="#e6d7a4"></circle>
        <circle r="5" cx="1270.38" cy="256.26" fill="#e6d7a4"></circle>
        <circle r="5" cx="1264.91" cy="370.98" fill="#e6d7a4"></circle>
        <circle r="5" cx="1257.57" cy="487.91" fill="#e6d7a4"></circle>
        <circle r="5" cx="1424.85" cy="-42.15" fill="#e6d7a4"></circle>
        <circle r="5" cx="1413.4" cy="60.49" fill="#e6d7a4"></circle>
        <circle r="5" cx="1392.99" cy="204.72" fill="#e6d7a4"></circle>
        <circle r="5" cx="1422.38" cy="351.33" fill="#e6d7a4"></circle>
        <circle r="5" cx="1403.62" cy="505.5" fill="#e6d7a4"></circle>
        <circle r="5" cx="1402.88" cy="690.21" fill="#e6d7a4"></circle>
        <circle r="5" cx="1564.49" cy="-72.5" fill="#e6d7a4"></circle>
        <circle r="5" cx="1596.32" cy="56.86" fill="#e6d7a4"></circle>
        <circle r="5" cx="1593.6" cy="337.9" fill="#e6d7a4"></circle>
        <circle r="5" cx="1594.47" cy="527.5" fill="#e6d7a4"></circle>
        <circle r="5" cx="1569.5" cy="708.48" fill="#e6d7a4"></circle>
    </g>
    <defs>
        <mask id="SvgjsMask4382">
            <rect width="1440" height="560" fill="#ffffff"></rect>
        </mask>
        <linearGradient x1="100%" y1="50%" x2="0%" y2="50%" gradientUnits="userSpaceOnUse" id="SvgjsLinearGradient4383">
            <stop stop-color="rgba(255, 216, 40, 1)" offset="0"></stop>
            <stop stop-color="rgba(243, 115, 115, 1)" offset="1"></stop>
        </linearGradient>
        <radialGradient id="SvgjsRadialGradient4384">
            <stop stop-color="#ffffff" offset="0.1"></stop>
            <stop stop-color="rgba(204, 175, 73, 1)" offset="0.2"></stop>
            <stop stop-color="rgba(204, 175, 73, 0)" offset="1"></stop>
        </radialGradient>
    </defs>
</svg>